<svg width="158" height="191" viewBox="0 0 158 191" fill="none" xmlns="http://www.w3.org/2000/svg">
<g opacity="0.2">
<path d="M67.401 190.458C104.447 190.458 134.48 187.99 134.48 184.946C134.48 181.902 104.447 179.434 67.401 179.434C30.3544 179.434 0.322266 181.902 0.322266 184.946C0.322266 187.99 30.3544 190.458 67.401 190.458Z" fill="#369FFF"/>
</g>
<path d="M77.5174 187.521C48.2525 186.492 17.9802 182.498 2.30838 128.566C-2.35272 112.532 0.676636 100.393 5.79178 91.2413C7.05461 88.9782 8.44514 86.9066 9.87823 84.9981C10.4174 84.2816 10.9637 83.5863 11.51 82.9124C22.9463 68.8865 42.1228 63.8565 59.1284 70.0571C68.6634 73.5334 80.8944 78.6698 91.7987 85.3529C113.707 98.7828 118.85 114.086 126.008 140.35C126.626 142.606 127.236 145.131 127.704 147.82C127.952 149.253 128.158 150.736 128.3 152.24C129.889 169.04 123.412 189.132 77.5174 187.521Z" fill="#8AC53E"/>
<path d="M128.3 152.247C127.328 154.978 125.945 157.759 124.1 160.399C118.566 168.33 107.038 177.908 83.569 178.532C82.5332 178.561 81.5187 178.575 80.5113 178.575C71.5438 178.575 63.6334 177.489 56.4041 175.283C48.8413 172.977 42.2434 169.487 36.2273 164.634C26.1743 156.518 17.8808 144.649 9.3603 126.153C5.99041 118.846 4.24516 111.439 4.17421 104.139C4.13164 99.7901 4.67083 95.4695 5.79886 91.2554C7.06168 88.9922 8.45221 86.9206 9.8853 85.0122C9.52348 85.8494 9.16875 86.7291 8.83531 87.6443C5.77048 96.0513 3.65631 109.432 11.0133 125.394C25.9757 157.866 43.3218 177.773 83.5264 176.723C106.243 176.127 117.325 166.954 122.617 159.37C125.384 155.411 126.945 151.403 127.711 147.834C127.952 149.26 128.158 150.736 128.3 152.247Z" fill="#006838" fill-opacity="0.4"/>
<path d="M86.4346 52.7183C86.4346 52.7183 104.809 77.6484 109.002 90.0709C113.195 102.493 103.022 111.312 103.022 111.312L93.5716 114.859C93.5716 114.852 83.8592 71.0008 86.4346 52.7183Z" fill="#006ED3"/>
<path d="M84.8092 122.549C76.7782 125.21 57.1547 132.191 48.6342 129.367C48.2724 129.246 47.9389 129.112 47.6197 128.956C46.6903 128.502 45.9454 127.891 45.4204 127.097C42.0789 122.01 38.7657 100.663 40.2556 88.1195C40.44 86.5517 40.5323 84.849 40.5606 83.0611C40.6032 80.4291 40.5181 77.6126 40.4046 74.7818C39.986 64.1259 38.3046 56.7689 42.8664 54.1794C46.9599 51.8524 52.1389 50.0362 55.4378 49.2487C57.4811 48.7591 60.8297 47.7375 63.178 47.7801L73.3373 49.6247C73.3373 49.6247 82.1061 51.0861 84.1281 52.5831C86.15 54.0729 87.1858 60.6496 90.8395 66.6728C94.4932 72.6961 95.2878 78.7406 91.7973 85.3527C88.7608 91.1063 89.2929 88.9212 88.8956 98.3569C88.4132 109.921 100.495 117.356 84.8092 122.549Z" fill="white"/>
<g opacity="0.8">
<g opacity="0.8">
<path opacity="0.8" d="M57.8359 68.3688C57.8359 68.3688 68.8466 65.5239 82.9009 68.1489L83.2414 77.8613C83.2414 77.8613 67.7895 76.1444 58.0559 78.6204L57.8359 68.3688Z" fill="#CED3E6"/>
</g>
</g>
<g opacity="0.8">
<path opacity="0.8" d="M70.4865 60.1672C70.3375 60.1672 70.1886 60.1601 70.0325 60.153C64.0163 59.8409 58.4968 54.5342 58.2698 54.3071C58.1066 54.1511 58.1066 53.8886 58.2627 53.7254C58.4188 53.5622 58.6813 53.5622 58.8444 53.7183C58.9012 53.7679 64.3711 59.0392 70.0751 59.33C75.5378 59.6209 76.1976 54.2007 76.226 53.9666C76.2544 53.7396 76.453 53.5764 76.6801 53.6048C76.9071 53.6261 77.0702 53.8318 77.0419 54.0588C77.0419 54.1227 76.3182 60.1672 70.4865 60.1672Z" fill="#CED3E6"/>
</g>
<g opacity="0.8">
<path opacity="0.8" d="M53.4304 108.793C53.3878 108.758 53.3523 108.722 53.3169 108.672C53.1963 108.467 53.2601 108.204 53.4588 108.084C61.284 103.344 68.79 101.677 73.7065 101.11C79.0487 100.492 82.4895 100.989 82.6314 101.017C82.8655 101.053 83.0287 101.273 82.9932 101.507C82.9578 101.741 82.7378 101.904 82.5037 101.869C82.4682 101.862 79.0061 101.365 73.7704 101.975C68.9461 102.536 61.5749 104.182 53.8986 108.829C53.7567 108.907 53.5723 108.892 53.4304 108.793Z" fill="#CED3E6"/>
</g>
<path d="M63.6614 126.416C56.4321 124.124 49.8909 119.513 45.4285 115.405C45.0737 115.079 44.7332 114.76 44.4069 114.44C42.094 112.192 40.4623 113.348 39.7529 112.057C37.0498 107.112 38.5823 87.7083 39.7529 80.5783C40.9235 73.4554 36.0069 60.4015 38.6532 55.7333C41.2995 51.0651 50.4159 49.4334 50.4159 49.4334C50.4159 49.4334 49.1247 47.9293 51.5723 46.2054C54.0199 44.4814 60.5327 45.1979 60.5327 45.1979C60.8449 76.0378 65.2151 104.678 63.6614 126.416Z" fill="#369FFF"/>
<path d="M56.5518 117.576C56.3532 117.576 56.1829 117.434 56.1546 117.236C52.8627 95.8458 56.1191 55.6057 56.1546 55.2013C56.1758 54.9814 56.3674 54.8182 56.5873 54.8324C56.8073 54.8537 56.9775 55.0452 56.9562 55.2652C56.9208 55.6696 53.6786 95.8104 56.9562 117.108C56.9917 117.328 56.8356 117.534 56.6157 117.569C56.5944 117.576 56.5731 117.576 56.5518 117.576Z" fill="white"/>
<path d="M63.1712 120.783C62.9796 120.783 62.8093 120.648 62.7739 120.45C58.4675 95.8812 58.127 53.4844 58.127 53.0587C58.127 52.8388 58.3043 52.6543 58.5242 52.6543C58.7442 52.6543 58.9286 52.8317 58.9286 53.0516C58.9286 53.4773 59.2763 95.8032 63.5684 120.308C63.6039 120.528 63.462 120.733 63.2421 120.776C63.2137 120.783 63.1924 120.783 63.1712 120.783Z" fill="#006ED3"/>
<path d="M56.0273 52.8177C55.9918 52.8177 55.9563 52.8106 55.9208 52.8035C52.5155 51.8954 50.4297 49.8876 50.3375 49.8025C50.1814 49.6464 50.1743 49.391 50.3304 49.2349C50.4865 49.0788 50.7418 49.0718 50.8979 49.2278C50.9192 49.2491 52.927 51.1788 56.1195 52.0302C56.3323 52.0869 56.46 52.3069 56.4033 52.5268C56.3678 52.6971 56.2046 52.8177 56.0273 52.8177Z" fill="#006ED3"/>
<path d="M94.9836 112.951C94.9836 112.951 92.4083 121.627 82.8165 125.763C81.6246 102.238 78.9287 75.371 75.4453 46.7943C75.4453 46.7943 79.1132 46.1487 80.6385 48.2487C81.2983 49.1497 81.4402 50.6821 81.4402 50.6821C81.4402 50.6821 83.3131 51.0439 85.3634 52.0017C87.4138 52.9594 87.1796 54.2719 87.6692 57.6063C88.1587 60.9407 93.3093 66.0985 94.9836 73.0866C96.6579 80.0747 92.2168 84.53 90.8333 90.3972C89.4428 96.2502 94.9836 112.951 94.9836 112.951Z" fill="#369FFF"/>
<path d="M86.7462 116.59C86.5263 116.59 86.3489 116.42 86.3418 116.2C85.4124 84.1965 79.5665 55.5985 79.5098 55.3147C79.4672 55.0948 79.602 54.8819 79.8219 54.8394C80.0419 54.7968 80.2547 54.9316 80.2973 55.1515C80.354 55.4353 86.2141 84.0972 87.1435 116.179C87.1506 116.399 86.9732 116.59 86.7533 116.59C86.7533 116.59 86.7533 116.59 86.7462 116.59Z" fill="white"/>
<path d="M77.9221 53.7041C77.7305 53.7041 77.5602 53.5622 77.5248 53.3706C77.4893 53.1507 77.6383 52.945 77.8511 52.9024C77.8795 52.8953 80.4619 52.4271 81.0507 50.5612C81.1146 50.3484 81.3416 50.2278 81.5544 50.2987C81.7673 50.3626 81.8808 50.5896 81.8169 50.8024C81.072 53.1436 78.1065 53.6757 77.9859 53.697C77.9646 53.697 77.9433 53.7041 77.9221 53.7041Z" fill="#006ED3"/>
<path d="M85.8095 116.59C85.6109 116.59 85.4335 116.441 85.4122 116.235C82.5744 92.639 78.0907 54.9316 78.0481 54.5556C78.0198 54.3357 78.1829 54.1371 78.4029 54.1087C78.6228 54.0803 78.8214 54.2435 78.8498 54.4634C78.8924 54.8394 83.3761 92.5539 86.2139 116.143C86.2423 116.363 86.0862 116.562 85.8592 116.59C85.8379 116.59 85.8237 116.59 85.8095 116.59Z" fill="#006ED3"/>
<path d="M61.9797 133.532C63.207 134.412 65.1368 135.327 68.0384 136.249C84.4977 141.485 99.5877 133.035 99.5877 133.035C100.503 128.53 99.9354 123.408 98.4172 121.535C98.8925 120.868 98.5803 120.074 98.5803 120.074L113.727 104.352C105.114 111.489 94.4584 113.823 86.1649 118.839C86.1649 118.839 86.1649 118.839 86.1578 118.839C83.767 120.286 81.6173 121.556 80.0423 122.436C77.6373 123.784 74.5725 123.919 71.5644 123.5C65.7043 122.691 60.0855 119.804 60.0855 119.804C60.0855 119.804 41.2211 111.255 37.6881 111.539C34.9425 111.759 49.7416 127.204 61.9797 133.532Z" fill="#FF993A"/>
<path d="M91.1309 146.714C91.1309 146.714 86.2782 145.316 84.7813 143.741L81.4043 151.687L92.8903 155.27C92.8974 155.27 93.0535 148.289 91.1309 146.714Z" fill="#EA9B7A"/>
<path d="M118.849 169.664L104 136.71C103.446 136.668 102.751 136.817 101.971 137.101C99.0903 138.15 95.0394 141.045 92.4357 142.741C92.1306 142.939 91.8468 143.124 91.5843 143.287C91.1445 143.557 90.7685 143.769 90.4847 143.904C88.1931 144.933 89.3992 146.167 89.3992 146.167C93.6701 148.303 91.0664 154.631 93.6701 156.107C93.6701 156.107 94.7769 156.752 98.3099 158.306C101.843 159.86 105.397 163.613 108.689 166.685C112.939 170.658 115.606 171.119 117.132 170.757C118.352 170.473 118.849 169.664 118.849 169.664Z" fill="#006ED3"/>
<path d="M118.849 169.664L104 136.71C103.446 136.668 102.751 136.817 101.971 137.101L117.132 170.757C118.352 170.473 118.849 169.664 118.849 169.664Z" fill="#369FFF"/>
<path d="M105.518 140.073L105.078 139.094C104.405 140.577 103.099 142.258 100.602 143.245C97.2745 144.55 94.1955 143.585 92.4431 142.748C92.1381 142.947 91.8543 143.131 91.5918 143.294C93.3725 144.252 96.9269 145.614 100.914 144.053C103.298 143.103 104.702 141.556 105.518 140.073Z" fill="#369FFF"/>
<path d="M100.006 156.873C99.8992 156.632 99.6296 156.483 99.3529 156.532C99.0266 156.589 98.8137 156.901 98.8705 157.228L99.2891 159.519C99.3458 159.846 99.658 160.058 99.9843 160.002C100.311 159.945 100.524 159.633 100.467 159.306L100.048 157.015C100.041 156.965 100.027 156.916 100.006 156.873Z" fill="white"/>
<path d="M97.3728 155.603C97.2664 155.362 96.9968 155.213 96.7201 155.262C96.3938 155.319 96.1809 155.631 96.2377 155.958L96.6562 158.249C96.713 158.576 97.0252 158.788 97.3515 158.732C97.6779 158.675 97.8907 158.363 97.8339 158.036L97.4154 155.745C97.4083 155.688 97.3941 155.646 97.3728 155.603Z" fill="white"/>
<path d="M102.135 158.391C102.028 158.15 101.758 158.001 101.482 158.051C101.155 158.107 100.943 158.419 100.999 158.746L101.418 161.037C101.475 161.364 101.787 161.577 102.113 161.52C102.44 161.463 102.652 161.151 102.596 160.825L102.177 158.533C102.17 158.483 102.156 158.434 102.135 158.391Z" fill="white"/>
<path d="M104.213 159.931C104.106 159.689 103.837 159.54 103.56 159.59C103.234 159.647 103.021 159.959 103.078 160.285L103.496 162.577C103.553 162.903 103.865 163.116 104.191 163.059C104.518 163.003 104.731 162.69 104.674 162.364L104.255 160.073C104.241 160.023 104.227 159.973 104.213 159.931Z" fill="white"/>
<path d="M106.285 161.697C106.178 161.456 105.909 161.307 105.632 161.357C105.306 161.413 105.093 161.726 105.15 162.052L105.568 164.343C105.625 164.67 105.937 164.883 106.264 164.826C106.59 164.769 106.803 164.457 106.746 164.131L106.327 161.839C106.32 161.789 106.306 161.74 106.285 161.697Z" fill="white"/>
<path d="M108.293 163.726C108.186 163.485 107.917 163.336 107.64 163.386C107.314 163.442 107.101 163.754 107.158 164.081L107.576 166.372C107.633 166.699 107.945 166.911 108.271 166.855C108.598 166.798 108.811 166.486 108.754 166.159L108.335 163.868C108.321 163.811 108.307 163.769 108.293 163.726Z" fill="white"/>
<path d="M37.6952 111.539C37.6952 111.539 25.7552 105.097 18.8451 110.078C6.20267 119.187 27.6565 136.703 52.2035 145.259C76.7506 153.815 84.7177 152.645 84.7177 152.645C84.7177 152.645 90.0528 151.176 88.1586 142.535C88.1586 142.535 74.0121 137.157 66.648 131.524C59.2768 125.884 54.2609 118.981 37.6952 111.539Z" fill="#FF993A"/>
<path d="M87.1929 145.046C82.0422 143.812 71.5565 138.995 59.134 132.177C49.8402 127.076 39.1275 120.556 37.5525 118.293C36.7012 117.073 36.4883 116.072 36.914 115.32C37.5525 114.199 39.3971 114.086 40.2342 114.093C40.4471 114.093 40.6173 114.278 40.6032 114.49C40.589 114.689 40.4258 114.838 40.2271 114.838C39.4042 114.831 37.964 114.973 37.5596 115.689C37.2191 116.285 37.7015 117.2 38.1626 117.86C39.4326 119.684 48.4 125.43 59.4888 131.517C69.038 136.76 81.3754 142.876 87.3631 144.316L87.1929 145.046Z" fill="#FF7E07"/>
<path d="M86.221 141.386C85.6392 145.926 84.4615 150.055 81.9004 153.226C81.9004 153.226 84.0997 154.809 86.1074 153.673C87.6399 152.808 90.5983 145.713 89.4702 141.925C88.1861 141.223 87.0794 140.974 86.221 141.386Z" fill="#FF7E07"/>
<path d="M55.0767 145.813C55.0767 145.813 59.9577 144.869 61.3412 143.195L65.2361 150.892L54.0196 155.234C54.0125 155.241 53.2605 147.515 55.0767 145.813Z" fill="#EA9B7A"/>
<path d="M29.082 171.339L41.6961 137.47C42.2495 137.384 42.9447 137.491 43.7464 137.725C46.6906 138.583 50.9261 141.194 53.6362 142.719C53.9554 142.897 54.2463 143.06 54.523 143.202C54.9841 143.443 55.3672 143.635 55.6652 143.741C58.0206 144.614 57.0415 145.281 57.0415 145.281C52.4017 147.459 55.8 154.482 53.3027 156.135C53.3027 156.135 52.2385 156.852 48.819 158.64C45.3994 160.427 42.1005 164.407 39.0215 167.692C35.0485 171.935 32.4165 172.58 30.8698 172.318C29.6354 172.112 29.082 171.339 29.082 171.339Z" fill="#006ED3"/>
<path d="M29.082 171.339L41.6961 137.47C42.2495 137.384 42.9447 137.491 43.7464 137.725L30.8628 172.318C29.6354 172.112 29.082 171.339 29.082 171.339Z" fill="#369FFF"/>
<path d="M40.4043 140.924L40.7803 139.917C41.5536 141.35 42.9654 142.946 45.5265 143.755C48.9319 144.841 51.94 143.67 53.6356 142.712C53.9548 142.89 54.2457 143.053 54.5224 143.195C52.8126 144.273 49.3505 145.869 45.2711 144.571C42.8235 143.805 41.3195 142.343 40.4043 140.924Z" fill="#369FFF"/>
<path d="M47.0242 157.32C47.1164 157.072 47.3718 156.901 47.6485 156.937C47.9748 156.972 48.209 157.27 48.1735 157.597L47.911 159.909C47.8755 160.236 47.5775 160.47 47.2512 160.434C46.9248 160.399 46.6907 160.101 46.7262 159.775L46.9887 157.462C46.9958 157.412 47.01 157.362 47.0242 157.32Z" fill="white"/>
<path d="M49.5711 155.873C49.6633 155.624 49.9187 155.454 50.1954 155.49C50.5217 155.525 50.7558 155.823 50.7204 156.149L50.4579 158.462C50.4224 158.788 50.1244 159.023 49.7981 158.987C49.4717 158.952 49.2376 158.654 49.2731 158.327L49.5356 156.015C49.5427 155.965 49.5569 155.915 49.5711 155.873Z" fill="white"/>
<path d="M45.0086 158.98C45.1008 158.732 45.3562 158.569 45.6329 158.597C45.9592 158.632 46.1933 158.93 46.1579 159.257L45.8954 161.57C45.8599 161.896 45.5619 162.13 45.2356 162.095C44.9092 162.059 44.6751 161.761 44.7106 161.435L44.9731 159.122C44.9802 159.072 44.9944 159.023 45.0086 158.98Z" fill="white"/>
<path d="M43.0379 160.654C43.1301 160.406 43.3855 160.243 43.6622 160.271C43.9885 160.307 44.2226 160.605 44.1872 160.931L43.9247 163.244C43.8892 163.57 43.5912 163.804 43.2649 163.769C42.9385 163.733 42.7044 163.435 42.7399 163.109L43.0024 160.796C43.0095 160.747 43.0237 160.697 43.0379 160.654Z" fill="white"/>
<path d="M41.0867 162.556C41.1789 162.307 41.4343 162.144 41.711 162.173C42.0373 162.208 42.2715 162.506 42.236 162.832L41.9735 165.145C41.938 165.472 41.6401 165.706 41.3137 165.67C40.9874 165.635 40.7532 165.337 40.7887 165.01L41.0512 162.698C41.0583 162.648 41.0725 162.598 41.0867 162.556Z" fill="white"/>
<path d="M39.2195 164.705C39.3117 164.457 39.5671 164.287 39.8438 164.322C40.1702 164.358 40.4043 164.656 40.3688 164.982L40.1063 167.295C40.0708 167.621 39.7729 167.855 39.4465 167.82C39.1202 167.784 38.886 167.486 38.9215 167.16L39.184 164.847C39.1911 164.797 39.2053 164.755 39.2195 164.705Z" fill="white"/>
<path d="M108.859 106.303C108.859 106.303 120.154 98.7901 127.497 103.118C140.927 111.028 121.168 130.439 97.5081 141.208C73.855 151.978 65.8098 151.545 65.8098 151.545C65.8098 151.545 60.3683 150.573 61.4537 141.79C61.4537 141.79 75.0469 135.135 81.8647 128.85C88.6825 122.571 93.0457 115.235 108.859 106.303Z" fill="#FF993A"/>
<path d="M88.2013 145.259C86.8959 145.685 85.5764 146.118 84.2071 146.55C78.9146 148.218 72.8701 149.963 67.4002 151.304L67.3789 152.084C72.3238 150.878 78.12 149.246 84.427 147.26C85.6615 146.87 86.9172 146.465 88.18 146.047L88.2013 145.259Z" fill="#FF7E07"/>
<path d="M62.6455 144.209C67.6613 142.506 77.6646 136.753 89.4061 128.821C98.1891 122.89 108.263 115.412 109.618 113.015C110.349 111.723 110.477 110.709 109.98 109.999C109.242 108.942 107.398 108.992 106.561 109.077C106.348 109.098 106.192 109.297 106.227 109.51C106.263 109.701 106.433 109.836 106.632 109.822C107.455 109.744 108.895 109.751 109.37 110.425C109.76 110.986 109.37 111.943 108.973 112.646C107.88 114.575 99.4732 121.116 88.9875 128.204C79.9632 134.298 68.236 141.52 62.4043 143.507L62.6455 144.209Z" fill="#FF7E07"/>
<path d="M63.2702 140.478C64.2635 144.947 65.8172 148.949 68.6621 151.872C68.6621 151.872 66.6189 153.652 64.5189 152.702C62.9155 151.978 59.3186 145.181 60.0919 141.308C61.3051 140.492 62.3834 140.151 63.2702 140.478Z" fill="#FF7E07"/>
<path d="M61.7451 104.643L60.837 117.605C60.837 117.605 45.4206 115.405 37.8579 113.476C35.6515 112.915 33.1826 112.192 30.9124 110.986C26.7337 108.765 23.2716 104.898 23.527 97.3641C23.605 94.9449 24.0732 92.1496 25.0239 88.9003C30.5292 70.0786 39.7521 54.272 39.7521 54.272C51.6213 59.3516 50.6209 67.8083 50.6209 67.8083C47.2368 76.8396 39.7521 96.0729 39.7521 96.0729C44.1011 101.387 61.7451 104.643 61.7451 104.643Z" fill="#369FFF"/>
<path d="M39.7528 96.4773C39.6818 96.4773 39.6038 96.456 39.54 96.4134C38.2275 95.6046 34.6589 94.7604 34.6235 94.7533C34.4035 94.7036 34.2687 94.4837 34.3255 94.2709C34.3751 94.0509 34.5951 93.9232 34.8079 93.9729C34.9356 94.0013 37.44 94.5901 39.093 95.2996C38.8518 94.7604 38.4545 94.1857 37.9082 93.5614C37.7592 93.3911 37.7805 93.1428 37.9437 92.9938C38.114 92.8449 38.3623 92.8661 38.5113 93.0293C39.4619 94.1077 40.0011 95.0867 40.1501 96.0161C40.1785 96.1722 40.1075 96.3283 39.9798 96.4134C39.9089 96.456 39.8308 96.4773 39.7528 96.4773Z" fill="#084FC7"/>
<path d="M30.9202 110.986C26.7415 108.765 23.2794 104.899 23.5348 97.3643C26.8408 99.0953 32.6087 103.295 30.9202 110.986Z" fill="#006ED3"/>
<path d="M52.0549 102.649C52.0194 102.649 51.991 102.642 51.9556 102.635C44.3219 100.663 39.682 96.5482 39.4905 96.3708C39.3557 96.2502 39.3202 96.0516 39.3983 95.8884C44.8468 85.1827 48.2877 76.6835 50.2387 69.1349C50.2954 68.9221 50.5154 68.7873 50.7282 68.8441C50.941 68.9008 51.0758 69.1208 51.0191 69.3336C49.0681 76.8751 45.6485 85.3388 40.2567 95.9664C41.2854 96.8178 45.6556 100.173 52.1542 101.848C52.367 101.905 52.5018 102.124 52.4451 102.337C52.3954 102.529 52.2322 102.649 52.0549 102.649Z" fill="#084FC7"/>
<path d="M48.9962 75.1439C48.9111 75.1439 48.8188 75.1155 48.7479 75.0588C48.5705 74.9169 48.5421 74.6686 48.684 74.4912L51.5148 70.9368C51.6566 70.7595 51.905 70.7311 52.0823 70.873C52.2597 71.0149 52.2881 71.2632 52.1462 71.4406L49.3154 74.9949C49.2303 75.0871 49.1168 75.1439 48.9962 75.1439Z" fill="#084FC7"/>
<path d="M62.1927 42.4737L75.8851 44.4318C84.7816 43.5449 87.6124 40.0048 89.0667 32.5271C89.7975 28.7671 89.315 25.4468 88.5985 22.9779C88.414 20.1685 87.7684 17.7422 86.4418 16.1388C80.4327 8.8953 75.1402 9.17908 75.1402 9.17908C72.4514 7.94464 63.569 7.10039 57.709 14.2162C57.5245 14.3723 53.9489 18.1607 53.1259 26.1066C52.3313 33.6836 57.3897 43.3605 62.1927 42.4737Z" fill="#39393B"/>
<path d="M69.8403 11.1656C69.8403 11.1656 71.2663 -1.46265 60.0569 0.140709C52.7354 1.1836 48.202 11.1088 54.8992 15.6139C61.5964 20.1189 69.8403 11.1656 69.8403 11.1656Z" fill="#39393B"/>
<path d="M56.0282 16.9123C55.9715 16.9123 55.9147 16.8981 55.858 16.8698C55.6877 16.7775 55.6239 16.5576 55.7161 16.3873C58.3127 11.6695 62.016 9.5837 64.6623 8.66141C67.5356 7.66818 69.7703 7.78878 69.8626 7.78878C70.0612 7.80297 70.2102 7.96615 70.196 8.16479C70.1818 8.36344 70.0186 8.51243 69.82 8.49824C69.7349 8.49114 61.0866 8.09385 56.3404 16.7279C56.2695 16.8414 56.1489 16.9123 56.0282 16.9123Z" fill="#006ED3"/>
<path d="M63.2635 39.6213C63.2635 39.6213 54.5302 34.7332 56.247 24.5596C57.9639 14.3861 64.6611 8.26352 74.9269 11.2148C74.934 11.2148 73.9337 40.6216 63.2635 39.6213Z" fill="#39393B"/>
<path d="M87.5555 20.9131C87.5555 20.9131 88.4494 29.6464 86.8531 30.9093C85.2639 32.1721 83.7031 28.7171 83.7031 28.7171C83.7031 28.7171 85.8741 21.0124 87.5555 20.9131Z" fill="#39393B"/>
<path d="M83.5328 31.7043C83.5328 31.7043 86.1365 29.4199 87.0021 32.2222C87.8676 35.0245 86.1152 40.1823 82.873 38.813L83.5328 31.7043Z" fill="#D46A43"/>
<path d="M86.7408 38.1741C86.3861 38.5005 85.9888 38.7842 85.5561 39.0184C83.9172 39.8981 81.7818 40.0045 79.2136 38.6565C79.2136 38.6565 75.9288 34.3856 80.7815 26.8513C80.7815 26.8513 85.2297 25.6807 87.7767 28.3695C88.0604 28.6675 88.3158 29.008 88.5429 29.4053C88.6848 29.6465 88.8054 29.909 88.9189 30.1928C89.8199 32.4843 88.9827 36.138 86.7408 38.1741Z" fill="#FF993A"/>
<path d="M86.6277 27.4544C86.8334 26.447 87.0392 25.1984 87.174 23.8149C87.1101 23.8433 87.0463 23.8646 86.9753 23.8646C86.6986 23.8859 86.429 23.7724 86.1594 23.5737C86.0388 24.8649 85.8544 26.0355 85.6699 27.0075L86.6277 27.4544Z" fill="white"/>
<path d="M86.7414 38.1743C86.3867 38.5006 85.9894 38.7844 85.5566 39.0185C87.8056 34.3574 87.8695 30.1007 87.7772 28.3696C88.061 28.6676 88.3164 29.0081 88.5434 29.4054C88.5434 31.3635 88.2526 34.5844 86.7414 38.1743Z" fill="#FF7E07"/>
<path d="M75.9422 44.3039L74.8709 51.5261C74.8709 51.5261 70.451 57.1946 60.2207 47.9505C61.3842 45.0133 63.172 41.232 62.7109 38.3374C62.7109 38.3374 63.4558 39.0256 64.747 39.8414C65.0095 40.0117 65.2933 40.1891 65.5913 40.3664C68.2446 41.984 72.3027 44.0485 75.9422 44.3039Z" fill="#EA9B7A"/>
<path d="M75.9425 44.304L75.4388 47.681C72.452 46.5317 67.2872 44.0415 64.7402 39.8345C65.0027 40.0047 65.2865 40.1821 65.5845 40.3595C68.2449 41.9841 72.303 44.0486 75.9425 44.304Z" fill="#39393B"/>
<path d="M85.7546 32.0234C85.6411 32.7683 85.5347 33.4706 85.4212 34.1375C84.5982 39.1179 83.8462 41.7996 82.4628 42.8638C75.4605 48.2343 63.116 38.7419 62.7187 38.4368C62.7116 38.4297 62.7116 38.4297 62.7116 38.4297C62.6691 37.848 62.6407 37.2733 62.6265 36.7128C62.4633 31.9169 63.0522 27.5751 64.1447 23.5241C64.5633 19.1468 67.7487 15.486 72.0551 14.6063C76.5176 13.6982 80.0364 16.1245 82.2145 17.1603C85.4992 18.7353 87.0033 23.5099 86.081 29.8524C85.9675 30.6115 85.861 31.3423 85.7546 32.0234Z" fill="#EA9B7A"/>
<path d="M79.4958 37.8268C75.5796 37.8268 74.0117 34.0809 73.9976 34.0383C73.9266 33.8538 74.0117 33.6481 74.1962 33.5771C74.3807 33.5062 74.5864 33.5913 74.6573 33.7758C74.7283 33.939 76.3671 37.8268 80.638 37.0038C80.8296 36.9683 81.0211 37.096 81.0566 37.2876C81.0921 37.4791 80.9644 37.6636 80.7728 37.7062C80.3188 37.7913 79.8931 37.8268 79.4958 37.8268Z" fill="#39393B"/>
<path d="M76.4818 24.3047C77.4892 23.957 77.2835 22.4743 76.2193 22.4033C74.4102 22.2827 71.5014 22.3324 71.2602 23.7939C70.9055 25.9293 74.2825 25.0425 76.4179 24.326C76.4392 24.3189 76.4605 24.3118 76.4818 24.3047Z" fill="#39393B"/>
<path d="M81.8244 24.936C81.044 24.2124 81.8315 22.9354 82.8318 23.3043C84.5345 23.9286 87.1807 25.1418 86.8118 26.5749C86.2797 28.6748 83.5412 26.4968 81.874 24.9857C81.8527 24.9644 81.8386 24.9502 81.8244 24.936Z" fill="#39393B"/>
<path d="M76.6086 39.5789C77.3252 39.7563 77.9282 39.6215 77.9708 39.6073C78.0985 39.5789 78.1765 39.4512 78.1481 39.3235C78.1198 39.1958 77.9921 39.1178 77.8644 39.1462C77.8502 39.1462 76.6796 39.4087 75.7928 38.6283C75.6935 38.5431 75.5445 38.5502 75.4593 38.6496C75.3742 38.7489 75.3813 38.8979 75.4806 38.983C75.8424 39.3093 76.2397 39.4867 76.6086 39.5789Z" fill="#D46A43"/>
<path d="M79.0631 34.7123C78.9993 34.6839 78.9567 34.6272 78.9283 34.5633C78.8858 34.4285 78.9567 34.2795 79.0915 34.237L80.8013 33.6765L79.7868 32.6478C79.73 32.591 79.7016 32.513 79.7158 32.435L80.028 29.6043C80.0422 29.4624 80.1699 29.3559 80.3189 29.3772C80.4607 29.3914 80.5672 29.5191 80.5459 29.661L80.2408 32.364L81.4611 33.5985C81.5249 33.6623 81.5533 33.7545 81.532 33.8397C81.5107 33.9248 81.4469 33.9958 81.3618 34.0241L79.2547 34.7194C79.1908 34.7478 79.127 34.7407 79.0631 34.7123Z" fill="#39393B"/>
<path d="M74.6366 32.0018C74.5514 32.5907 73.2673 32.8815 71.7775 32.6616C70.2876 32.4417 69.1454 31.7819 69.2376 31.1931C69.3228 30.6042 70.6069 30.3133 72.0967 30.5333C73.5866 30.7603 74.7217 31.4201 74.6366 32.0018Z" fill="#D46A43"/>
<g opacity="0.8">
<g opacity="0.8">
<g opacity="0.8">
<g opacity="0.8">
<g opacity="0.8">
<g opacity="0.8">
<g opacity="0.8">
<g opacity="0.8">
<g opacity="0.8">
<g opacity="0.8">
<g opacity="0.8">
<path opacity="0.8" d="M85.7545 32.7118C85.641 33.4567 85.5346 34.1591 85.4211 34.826C84.0589 34.5706 83.0586 33.9533 83.1437 33.4071C83.2218 32.8466 84.3711 32.5557 85.7545 32.7118Z" fill="#D46A43"/>
</g>
</g>
</g>
</g>
</g>
</g>
</g>
</g>
</g>
</g>
</g>
<path d="M76.091 29.9022C75.9704 30.711 75.5092 31.3069 75.0552 31.2431C74.6011 31.1792 74.3386 30.4698 74.4522 29.661C74.5728 28.8522 75.0339 28.2563 75.4879 28.3201C75.942 28.384 76.2116 29.0934 76.091 29.9022Z" fill="#39393B"/>
<path d="M84.0715 31.0868C83.9508 31.8955 83.4897 32.4915 83.0357 32.4276C82.5816 32.3638 82.3191 31.6543 82.4326 30.8456C82.5532 30.0368 83.0144 29.4408 83.4684 29.5047C83.9225 29.5756 84.185 30.2851 84.0715 31.0868Z" fill="#39393B"/>
<path d="M65.8317 35.5566C65.7821 35.6418 64.3561 37.9404 62.7172 38.437C62.7101 38.4299 62.7101 38.4299 62.7101 38.4299C62.6676 37.8482 62.6392 37.2735 62.625 36.713C62.6818 36.706 64.2567 36.6705 65.8317 35.5566Z" fill="#39393B"/>
<path d="M65.1871 29.7317C65.1871 29.7317 62.6047 24.9216 59.7385 27.9723C57.376 30.4837 59.93 38.5006 64.279 36.358L65.1871 29.7317Z" fill="#EA9B7A"/>
<path d="M63.9462 35.0457C63.7759 35.0174 63.6553 34.8755 63.6624 34.6981C63.7901 31.3637 61.2148 29.8171 61.1084 29.7532C60.9523 29.661 60.8956 29.4553 60.9878 29.2921C61.08 29.1289 61.2858 29.0792 61.4489 29.1715C61.5695 29.2424 64.4854 30.9806 64.3364 34.7265C64.3293 34.9109 64.1732 35.0528 63.9888 35.0457C63.9746 35.0457 63.9604 35.0457 63.9462 35.0457Z" fill="#39393B"/>
<path d="M61.1505 32.5765C61.0512 32.5623 60.966 32.5056 60.9093 32.4134C60.817 32.2573 60.8667 32.0515 61.0299 31.9522C61.1789 31.8671 62.5055 31.1009 63.4633 31.5053C63.6336 31.5762 63.7116 31.7748 63.6407 31.9451C63.5697 32.1154 63.3711 32.1934 63.2008 32.1225C62.6474 31.8884 61.6684 32.3495 61.3704 32.5269C61.2995 32.5694 61.2214 32.5836 61.1505 32.5765Z" fill="#39393B"/>
<path d="M73.1831 34.1374C70.6574 33.1725 69.3875 30.3347 70.3523 27.809C71.3172 25.2834 74.155 24.0135 76.6807 24.9783C79.2063 25.9432 80.4762 28.781 79.5114 31.3066C78.5465 33.8323 75.7087 35.1022 73.1831 34.1374ZM76.4253 25.6452C74.2685 24.8222 71.8422 25.9077 71.0192 28.0644C70.1963 30.2212 71.2817 32.6475 73.4385 33.4705C75.5952 34.2934 78.0215 33.208 78.8445 31.0512C79.6674 28.8945 78.582 26.4682 76.4253 25.6452Z" fill="white"/>
<path d="M70.5073 28.462C70.4648 28.462 70.4222 28.4478 70.3796 28.4265C67.7263 27.2133 65.2361 28.1356 65.2077 28.1498C65.0233 28.2207 64.8175 28.1285 64.7466 27.9441C64.6756 27.7596 64.7679 27.5539 64.9523 27.4829C65.0658 27.4403 67.7547 26.44 70.6776 27.7809C70.855 27.866 70.933 28.0789 70.855 28.2562C70.784 28.391 70.6492 28.4691 70.5073 28.462Z" fill="white"/>
<path d="M84.0307 35.3649C81.5051 34.4 80.2351 31.5622 81.2 29.0366C82.1649 26.5109 85.0027 25.241 87.5283 26.2059C90.054 27.1707 91.3239 30.0085 90.359 32.5342C89.4013 35.0598 86.5564 36.3297 84.0307 35.3649ZM87.28 26.8728C85.1233 26.0498 82.6969 27.1352 81.874 29.292C81.051 31.4487 82.1365 33.875 84.2932 34.698C86.4499 35.521 88.8763 34.4355 89.6992 32.2788C90.5222 30.122 89.4367 27.6957 87.28 26.8728Z" fill="white"/>
<path d="M79.2845 29.2283C79.2277 29.1999 79.1851 29.1574 79.1497 29.1006C79.0432 28.9303 79.0929 28.7104 79.2632 28.604C79.3128 28.5756 80.5047 27.8449 81.7463 28.7955C81.9023 28.9161 81.9307 29.1432 81.8101 29.2993C81.6895 29.4553 81.4625 29.4837 81.3064 29.3631C80.455 28.7104 79.6463 29.207 79.6392 29.207C79.5257 29.2851 79.3909 29.2851 79.2845 29.2283Z" fill="white"/>
<path d="M81.9088 12.7616C84.8885 14.1025 87.2297 16.5856 88.2725 19.6788C88.9252 21.6156 89.4715 24.1767 86.7472 23.8433C79.3122 22.9423 75.3321 15.2234 75.3321 15.2234C75.3321 15.2234 73.8849 22.3321 68.0461 21.4666C62.2073 20.594 62.3917 16.1954 65.712 13.7052C68.415 11.6691 75.3038 9.78194 81.9088 12.7616Z" fill="#39393B"/>
<path d="M68.2727 20.6435C68.2727 20.6435 64.9524 24.212 66.1443 28.0501C67.3362 31.8883 67.4143 34.9673 66.1727 37.0318C66.1727 37.0318 65.8535 32.9879 64.3707 29.9231C63.1575 27.4045 62.0224 25.489 62.9021 22.5873C63.5052 20.6009 64.9595 18.6854 68.2727 20.6435Z" fill="#39393B"/>
<path d="M62.8738 38.0607C60.2985 38.685 58.305 38.3232 56.8293 37.3938C56.5952 37.2448 56.3753 37.0816 56.1624 36.9114C53.0692 34.3219 52.8422 28.9513 54.7364 26.3192C55.4033 25.3899 56.1766 24.7655 56.9925 24.3682C57.2408 24.2405 57.4891 24.1412 57.7374 24.0632C60.937 23.0132 64.4063 24.9358 64.4063 24.9358C68.0387 34.9107 62.8738 38.0607 62.8738 38.0607Z" fill="#FF993A"/>
<path d="M71.9345 42.4236C64.4072 40.8841 61.2076 35.4639 61.0586 35.2014C60.938 34.9957 61.0089 34.7261 61.2218 34.6055C61.4275 34.4849 61.6971 34.5558 61.8177 34.7687C61.8674 34.8538 65.7765 41.4233 74.9 41.9199C75.1412 41.9341 75.3257 42.1399 75.3115 42.3811C75.2973 42.6223 75.0916 42.8067 74.8504 42.7926C73.8146 42.7358 72.8426 42.6081 71.9345 42.4236Z" fill="white"/>
<path d="M77.2975 42.6793C77.1414 43.4314 76.4036 43.9209 75.6516 43.7648C74.8996 43.6087 74.41 42.8709 74.5661 42.1189C74.7222 41.3669 75.46 40.8773 76.2121 41.0334C76.9641 41.1895 77.4536 41.9202 77.2975 42.6793Z" fill="#243434"/>
<path d="M56.829 37.3936C56.5949 37.2446 56.3749 37.0814 56.1621 36.9112C58.5459 31.5193 57.7371 26.8086 56.9851 24.3681C57.2334 24.2404 57.4817 24.141 57.73 24.063C58.5388 26.6454 59.4114 31.6754 56.829 37.3936Z" fill="#FF7E07"/>
<path d="M87.3854 17.6568C86.7539 16.472 86.0516 15.6846 85.704 15.2944C85.4131 14.4501 85.1009 13.6555 84.6327 12.9177C83.0577 10.4204 80.5675 8.888 77.2189 8.3701C73.6078 7.80964 70.472 8.52618 67.9038 10.4914C67.1021 11.1015 66.3927 11.818 65.7542 12.5842C64.8744 13.6555 64.1437 14.8403 63.5478 16.0251C61.4762 20.1683 60.9796 24.425 60.9725 24.4818L59.9863 24.3753C60.0289 23.971 61.1427 14.4075 67.2937 9.69678C70.0818 7.56133 73.473 6.78093 77.3679 7.38396C81.0145 7.94443 83.7388 9.63293 85.4698 12.3856C86.4844 13.9748 87.0732 15.7981 87.3854 17.6568Z" fill="white"/>
<path d="M49.9552 126.835L46.5214 120.308C45.663 118.683 46.862 116.732 48.6994 116.746L102.639 117.328L101.05 125.685L49.9552 126.835Z" fill="#39393B"/>
<path d="M100.113 124.997H51.8422C50.6787 124.997 49.8344 124.053 49.9692 122.89L53.2611 93.0646C53.3888 91.9011 54.4388 90.9575 55.6023 90.9575H103.873C105.037 90.9575 105.881 91.9011 105.746 93.0646L102.454 122.89C102.327 124.053 101.277 124.997 100.113 124.997Z" fill="#39393B"/>
<path d="M51.1264 126.281C51.1122 126.281 51.0909 126.281 51.0767 126.281C50.8568 126.253 50.6936 126.047 50.722 125.827L54.7304 93.8877C54.7587 93.6678 54.9645 93.5046 55.1844 93.533C55.4043 93.5614 55.5675 93.7671 55.5391 93.987L51.5307 125.927C51.5024 126.132 51.325 126.281 51.1264 126.281Z" fill="#564C54"/>
<path d="M74.6089 108.509C74.4245 110.907 76.191 112.972 78.5464 113.121C80.9089 113.27 82.9734 111.453 83.1578 109.056C83.3423 106.658 81.5757 104.593 79.2204 104.444C76.8579 104.295 74.7934 106.111 74.6089 108.509Z" fill="#585859"/>
<path d="M100.348 127.593H51.4101C50.3318 127.593 49.5088 126.643 49.6507 125.578L50.119 122.166H102.64L102.108 126.054C101.987 126.941 101.235 127.593 100.348 127.593Z" fill="#39393B"/>
<path d="M114.055 62.5735C114.055 74.4808 123.709 84.1469 135.628 84.1469C147.536 84.1469 157.202 74.4923 157.202 62.5735C157.202 50.6661 147.547 41 135.628 41C123.709 41 114.055 50.6661 114.055 62.5735Z" fill="#369FFF"/>
<path d="M128.775 60.12C128.388 60.12 128.032 60.0533 127.707 59.92C127.382 59.784 127.099 59.5867 126.859 59.328C126.619 59.0693 126.432 58.7547 126.299 58.384C126.166 58.0133 126.099 57.592 126.099 57.12C126.099 56.4987 126.212 55.9653 126.439 55.52C126.666 55.072 126.98 54.728 127.383 54.488C127.786 54.2453 128.25 54.124 128.775 54.124C129.452 54.124 129.992 54.2813 130.395 54.596C130.8 54.9107 131.076 55.3453 131.223 55.9L130.375 56.052C130.258 55.708 130.068 55.4333 129.807 55.228C129.546 55.0227 129.218 54.9187 128.823 54.916C128.415 54.9133 128.075 55.004 127.803 55.188C127.534 55.372 127.331 55.6307 127.195 55.964C127.059 56.2947 126.99 56.68 126.987 57.12C126.984 57.56 127.051 57.9453 127.187 58.276C127.323 58.604 127.527 58.86 127.799 59.044C128.074 59.228 128.415 59.3213 128.823 59.324C129.151 59.3293 129.432 59.2693 129.667 59.144C129.904 59.016 130.092 58.8293 130.231 58.584C130.37 58.3387 130.459 58.0373 130.499 57.68H129.379V57.008H131.387C131.392 57.056 131.396 57.12 131.399 57.2C131.402 57.2773 131.403 57.3267 131.403 57.348C131.403 57.8813 131.3 58.3573 131.095 58.776C130.89 59.1947 130.591 59.524 130.199 59.764C129.807 60.0013 129.332 60.12 128.775 60.12ZM134.076 60.12C133.644 60.12 133.269 60.0227 132.952 59.828C132.635 59.6333 132.389 59.3653 132.216 59.024C132.045 58.68 131.96 58.284 131.96 57.836C131.96 57.3853 132.048 56.9893 132.224 56.648C132.4 56.304 132.647 56.0373 132.964 55.848C133.281 55.656 133.652 55.56 134.076 55.56C134.508 55.56 134.883 55.6573 135.2 55.852C135.517 56.0467 135.763 56.3147 135.936 56.656C136.109 56.9973 136.196 57.3907 136.196 57.836C136.196 58.2867 136.108 58.684 135.932 59.028C135.759 59.3693 135.513 59.6373 135.196 59.832C134.879 60.024 134.505 60.12 134.076 60.12ZM134.076 59.332C134.489 59.332 134.797 59.1933 135 58.916C135.205 58.636 135.308 58.276 135.308 57.836C135.308 57.3853 135.204 57.0253 134.996 56.756C134.791 56.484 134.484 56.348 134.076 56.348C133.796 56.348 133.565 56.412 133.384 56.54C133.203 56.6653 133.068 56.84 132.98 57.064C132.892 57.2853 132.848 57.5427 132.848 57.836C132.848 58.2893 132.952 58.652 133.16 58.924C133.368 59.196 133.673 59.332 134.076 59.332ZM138.951 60.12C138.519 60.12 138.144 60.0227 137.827 59.828C137.51 59.6333 137.264 59.3653 137.091 59.024C136.92 58.68 136.835 58.284 136.835 57.836C136.835 57.3853 136.923 56.9893 137.099 56.648C137.275 56.304 137.522 56.0373 137.839 55.848C138.156 55.656 138.527 55.56 138.951 55.56C139.383 55.56 139.758 55.6573 140.075 55.852C140.392 56.0467 140.638 56.3147 140.811 56.656C140.984 56.9973 141.071 57.3907 141.071 57.836C141.071 58.2867 140.983 58.684 140.807 59.028C140.634 59.3693 140.388 59.6373 140.071 59.832C139.754 60.024 139.38 60.12 138.951 60.12ZM138.951 59.332C139.364 59.332 139.672 59.1933 139.875 58.916C140.08 58.636 140.183 58.276 140.183 57.836C140.183 57.3853 140.079 57.0253 139.871 56.756C139.666 56.484 139.359 56.348 138.951 56.348C138.671 56.348 138.44 56.412 138.259 56.54C138.078 56.6653 137.943 56.84 137.855 57.064C137.767 57.2853 137.723 57.5427 137.723 57.836C137.723 58.2893 137.827 58.652 138.035 58.924C138.243 59.196 138.548 59.332 138.951 59.332ZM143.666 60.12C143.263 60.12 142.915 60.02 142.622 59.82C142.331 59.62 142.106 59.348 141.946 59.004C141.789 58.6573 141.71 58.268 141.71 57.836C141.71 57.4013 141.79 57.0133 141.95 56.672C142.11 56.328 142.337 56.0573 142.63 55.86C142.926 55.66 143.277 55.56 143.682 55.56C144.09 55.56 144.433 55.66 144.71 55.86C144.99 56.0573 145.201 56.328 145.342 56.672C145.486 57.016 145.558 57.404 145.558 57.836C145.558 58.268 145.486 58.656 145.342 59C145.198 59.344 144.986 59.6173 144.706 59.82C144.426 60.02 144.079 60.12 143.666 60.12ZM143.782 59.364C144.057 59.364 144.281 59.2987 144.454 59.168C144.627 59.0373 144.754 58.8573 144.834 58.628C144.914 58.3987 144.954 58.1347 144.954 57.836C144.954 57.5373 144.913 57.2733 144.83 57.044C144.75 56.8147 144.625 56.636 144.454 56.508C144.286 56.38 144.071 56.316 143.81 56.316C143.533 56.316 143.305 56.384 143.126 56.52C142.947 56.656 142.814 56.8387 142.726 57.068C142.641 57.2973 142.598 57.5533 142.598 57.836C142.598 58.1213 142.641 58.38 142.726 58.612C142.814 58.8413 142.945 59.024 143.118 59.16C143.294 59.296 143.515 59.364 143.782 59.364ZM144.954 60V56.892H144.858V54.24H145.698V60H144.954ZM125.896 71L125.9 68.308C125.9 67.996 125.82 67.7533 125.66 67.58C125.5 67.404 125.289 67.316 125.028 67.316C124.868 67.316 124.721 67.3533 124.588 67.428C124.457 67.5 124.35 67.6093 124.268 67.756C124.188 67.9 124.148 68.0813 124.148 68.3L123.744 68.096C123.738 67.792 123.802 67.5253 123.936 67.296C124.072 67.0667 124.256 66.8893 124.488 66.764C124.72 66.636 124.98 66.572 125.268 66.572C125.734 66.572 126.096 66.712 126.352 66.992C126.608 67.272 126.736 67.644 126.736 68.108L126.732 71H125.896ZM120.716 71V66.68H121.46V67.928H121.556V71H120.716ZM123.308 71L123.312 68.324C123.312 68.0093 123.232 67.7627 123.072 67.584C122.914 67.4053 122.702 67.316 122.436 67.316C122.172 67.316 121.958 67.4067 121.796 67.588C121.636 67.7693 121.556 68.0067 121.556 68.3L121.156 68.044C121.156 67.7613 121.224 67.5093 121.36 67.288C121.496 67.0667 121.68 66.892 121.912 66.764C122.144 66.636 122.406 66.572 122.7 66.572C123.006 66.572 123.268 66.6373 123.484 66.768C123.7 66.896 123.864 67.076 123.976 67.308C124.09 67.54 124.148 67.8093 124.148 68.116L124.144 71H123.308ZM129.596 71.12C129.164 71.12 128.789 71.0227 128.472 70.828C128.154 70.6333 127.909 70.3653 127.736 70.024C127.565 69.68 127.48 69.284 127.48 68.836C127.48 68.3853 127.568 67.9893 127.744 67.648C127.92 67.304 128.166 67.0373 128.484 66.848C128.801 66.656 129.172 66.56 129.596 66.56C130.028 66.56 130.402 66.6573 130.72 66.852C131.037 67.0467 131.282 67.3147 131.456 67.656C131.629 67.9973 131.716 68.3907 131.716 68.836C131.716 69.2867 131.628 69.684 131.452 70.028C131.278 70.3693 131.033 70.6373 130.716 70.832C130.398 71.024 130.025 71.12 129.596 71.12ZM129.596 70.332C130.009 70.332 130.317 70.1933 130.52 69.916C130.725 69.636 130.828 69.276 130.828 68.836C130.828 68.3853 130.724 68.0253 130.516 67.756C130.31 67.484 130.004 67.348 129.596 67.348C129.316 67.348 129.085 67.412 128.904 67.54C128.722 67.6653 128.588 67.84 128.5 68.064C128.412 68.2853 128.368 68.5427 128.368 68.836C128.368 69.2893 128.472 69.652 128.68 69.924C128.888 70.196 129.193 70.332 129.596 70.332ZM132.595 71V66.68H133.339V67.728L133.235 67.592C133.288 67.4533 133.357 67.3267 133.443 67.212C133.528 67.0947 133.627 66.9987 133.739 66.924C133.848 66.844 133.969 66.7827 134.103 66.74C134.239 66.6947 134.377 66.668 134.519 66.66C134.66 66.6493 134.796 66.656 134.927 66.68V67.464C134.785 67.4267 134.628 67.416 134.455 67.432C134.284 67.448 134.127 67.5027 133.983 67.596C133.847 67.684 133.739 67.7907 133.659 67.916C133.581 68.0413 133.525 68.1813 133.491 68.336C133.456 68.488 133.439 68.6493 133.439 68.82V71H132.595ZM138.72 71V68.876C138.72 68.708 138.706 68.536 138.676 68.36C138.65 68.1813 138.596 68.016 138.516 67.864C138.439 67.712 138.328 67.5893 138.184 67.496C138.043 67.4027 137.858 67.356 137.628 67.356C137.479 67.356 137.338 67.3813 137.204 67.432C137.071 67.48 136.954 67.5587 136.852 67.668C136.754 67.7773 136.675 67.9213 136.616 68.1C136.56 68.2787 136.532 68.496 136.532 68.752L136.012 68.556C136.012 68.164 136.086 67.8187 136.232 67.52C136.379 67.2187 136.59 66.984 136.864 66.816C137.139 66.648 137.471 66.564 137.86 66.564C138.159 66.564 138.41 66.612 138.612 66.708C138.815 66.804 138.979 66.9307 139.104 67.088C139.232 67.2427 139.33 67.412 139.396 67.596C139.463 67.78 139.508 67.96 139.532 68.136C139.556 68.312 139.568 68.4667 139.568 68.6V71H138.72ZM135.684 71V66.68H136.432V67.928H136.532V71H135.684ZM140.69 65.972V65.16H141.526V65.972H140.69ZM140.69 71V66.68H141.526V71H140.69ZM145.759 71V68.876C145.759 68.708 145.745 68.536 145.715 68.36C145.689 68.1813 145.635 68.016 145.555 67.864C145.478 67.712 145.367 67.5893 145.223 67.496C145.082 67.4027 144.897 67.356 144.667 67.356C144.518 67.356 144.377 67.3813 144.243 67.432C144.11 67.48 143.993 67.5587 143.891 67.668C143.793 67.7773 143.714 67.9213 143.655 68.1C143.599 68.2787 143.571 68.496 143.571 68.752L143.051 68.556C143.051 68.164 143.125 67.8187 143.271 67.52C143.418 67.2187 143.629 66.984 143.903 66.816C144.178 66.648 144.51 66.564 144.899 66.564C145.198 66.564 145.449 66.612 145.651 66.708C145.854 66.804 146.018 66.9307 146.143 67.088C146.271 67.2427 146.369 67.412 146.435 67.596C146.502 67.78 146.547 67.96 146.571 68.136C146.595 68.312 146.607 68.4667 146.607 68.6V71H145.759ZM142.723 71V66.68H143.471V67.928H143.571V71H142.723ZM149.429 73.04C149.197 73.04 148.972 73.004 148.753 72.932C148.537 72.86 148.34 72.7533 148.161 72.612C147.983 72.4733 147.835 72.3013 147.717 72.096L148.489 71.704C148.583 71.888 148.716 72.0227 148.889 72.108C149.063 72.1933 149.245 72.236 149.437 72.236C149.675 72.236 149.877 72.1933 150.045 72.108C150.213 72.0253 150.34 71.9 150.425 71.732C150.513 71.564 150.556 71.356 150.553 71.108V69.9H150.653V66.68H151.393V71.116C151.393 71.2307 151.389 71.34 151.381 71.444C151.373 71.548 151.359 71.652 151.337 71.756C151.276 72.0467 151.159 72.2867 150.985 72.476C150.815 72.6653 150.596 72.8067 150.329 72.9C150.065 72.9933 149.765 73.04 149.429 73.04ZM149.365 71.12C148.963 71.12 148.615 71.02 148.321 70.82C148.031 70.62 147.805 70.348 147.645 70.004C147.488 69.6573 147.409 69.268 147.409 68.836C147.409 68.4013 147.489 68.0133 147.649 67.672C147.809 67.328 148.036 67.0573 148.329 66.86C148.625 66.66 148.976 66.56 149.381 66.56C149.789 66.56 150.132 66.66 150.409 66.86C150.689 67.0573 150.9 67.328 151.041 67.672C151.185 68.016 151.257 68.404 151.257 68.836C151.257 69.268 151.185 69.656 151.041 70C150.897 70.344 150.685 70.6173 150.405 70.82C150.125 71.02 149.779 71.12 149.365 71.12ZM149.481 70.364C149.756 70.364 149.98 70.2987 150.153 70.168C150.327 70.0373 150.453 69.8573 150.533 69.628C150.613 69.3987 150.653 69.1347 150.653 68.836C150.653 68.5373 150.612 68.2733 150.529 68.044C150.449 67.8147 150.324 67.636 150.153 67.508C149.985 67.38 149.771 67.316 149.509 67.316C149.232 67.316 149.004 67.384 148.825 67.52C148.647 67.656 148.513 67.8387 148.425 68.068C148.34 68.2973 148.297 68.5533 148.297 68.836C148.297 69.1213 148.34 69.38 148.425 69.612C148.513 69.8413 148.644 70.024 148.817 70.16C148.993 70.296 149.215 70.364 149.481 70.364Z" fill="white"/>
<path d="M124.593 80.2161L112.996 82.6642L118.019 72.6763L124.593 80.2161Z" fill="#369FFF"/>
</svg>
