<svg width="360" height="210" viewBox="0 0 360 210" fill="none" xmlns="http://www.w3.org/2000/svg">
<g filter="url(#filter0_d_501_3272)">
<rect x="30" y="20" width="300" height="150" rx="20" fill="#8AC53E"/>
</g>
<path opacity="0.1" fill-rule="evenodd" clip-rule="evenodd" d="M110.619 20C109.599 26.9096 103.345 46.3399 77.5836 55.1535C52.5889 63.7047 36.1231 60.7638 30.0002 58L30.0002 40C30.0002 28.9543 38.9545 20 50.0002 20L110.619 20Z" fill="#006838"/>
<path opacity="0.1" fill-rule="evenodd" clip-rule="evenodd" d="M194.309 170H310.001C321.038 170 329.987 161.059 330.001 150.025C330.001 150.017 330.001 150.008 330.001 150L330.001 90C329.232 101.667 315.97 125 269.078 125C222.186 125 199.693 155 194.309 170Z" fill="#006838"/>
<defs>
<filter id="filter0_d_501_3272" x="0" y="0" width="360" height="210" filterUnits="userSpaceOnUse" color-interpolation-filters="sRGB">
<feFlood flood-opacity="0" result="BackgroundImageFix"/>
<feColorMatrix in="SourceAlpha" type="matrix" values="0 0 0 0 0 0 0 0 0 0 0 0 0 0 0 0 0 0 127 0" result="hardAlpha"/>
<feOffset dy="10"/>
<feGaussianBlur stdDeviation="15"/>
<feColorMatrix type="matrix" values="0 0 0 0 0.541176 0 0 0 0 0.772549 0 0 0 0 0.243137 0 0 0 0.4 0"/>
<feBlend mode="normal" in2="BackgroundImageFix" result="effect1_dropShadow_501_3272"/>
<feBlend mode="normal" in="SourceGraphic" in2="effect1_dropShadow_501_3272" result="shape"/>
</filter>
</defs>
</svg>
